<?xml version="1.0" encoding="utf-8"?>
<!-- Generator: Adobe Illustrator 25.0.0, SVG Export Plug-In . SVG Version: 6.00 Build 0)  -->
<svg version="1.1" id="Layer_1" xmlns="http://www.w3.org/2000/svg" xmlns:xlink="http://www.w3.org/1999/xlink" x="0px" y="0px"
	 viewBox="0 0 200 86.8" style="enable-background:new 0 0 200 86.8;" xml:space="preserve">
<style type="text/css">
	.st0{fill:#EA0029;}
</style>
<g>
	<rect x="143" y="58.8" width="4.3" height="19.8"/>
	<path d="M163.9,78.7h-9.4c-2.2,0-3.3-1-3.3-3V61.8c0-2,1.1-3,3.3-3h8.8c1.5,0,2.8,0.2,3.9,0.6c1.1,0.4,2,0.9,2.6,1.5
		c0.6,0.6,1.1,1.4,1.5,2.3c0.4,0.9,0.6,1.8,0.7,2.6c0.1,0.9,0.2,1.8,0.2,2.9c0,1.1-0.1,2-0.2,2.9c-0.1,0.9-0.4,1.8-0.7,2.7
		c-0.4,0.9-0.8,1.7-1.4,2.3c-0.6,0.6-1.4,1.1-2.4,1.5C166.5,78.5,165.3,78.7,163.9,78.7 M161.8,61.8h-4.7c-0.7,0-1.1,0.1-1.3,0.3
		c-0.2,0.2-0.3,0.6-0.3,1.1v11c0,0.6,0.1,0.9,0.3,1.1c0.2,0.2,0.7,0.3,1.3,0.3h4.7c1.3,0,2.3-0.2,3.1-0.5c0.8-0.3,1.4-0.8,1.9-1.5
		c0.4-0.7,0.7-1.4,0.8-2.2c0.2-0.8,0.2-1.7,0.2-2.8s-0.1-2-0.2-2.8c-0.2-0.8-0.4-1.5-0.8-2.2c-0.4-0.7-1-1.2-1.9-1.5
		C164.1,62,163.1,61.8,161.8,61.8"/>
	<path d="M194.1,78.7h-9.5c-1.9,0-3.5-0.2-4.8-0.7c-1.3-0.5-2.3-1.2-3-2.1c-0.7-0.9-1.2-2-1.5-3.1c-0.3-1.1-0.4-2.5-0.4-4
		c0-1.5,0.1-2.8,0.4-4c0.3-1.1,0.8-2.2,1.5-3.1c0.7-0.9,1.7-1.6,3-2.1c1.3-0.5,2.9-0.7,4.8-0.7h9.1v3h-7.1c-2.8,0-4.7,0.5-5.7,1.5
		c-1,1-1.5,2.8-1.5,5.5c0,2.7,0.5,4.5,1.5,5.5s2.9,1.5,5.7,1.5h7.5V78.7z"/>
	<path class="st0" d="M49.5,16.3h-3.1c-1.2,0-2.3,1-2.3,2.3v23.2c0,1.2,1,2.3,2.3,2.3h3.1c1.2,0,2.3-1,2.3-2.3V18.5
		C51.8,17.3,50.8,16.3,49.5,16.3"/>
	<path class="st0" d="M38.3,16.3c-2,0-3.6,1.2-4.4,2.9l-8.3,17.7c-0.2,0.4-0.6,1.1-0.9,1.1c-0.3,0-0.7-0.7-0.9-1.1l-8.4-17.7
		c-0.8-1.7-2.5-2.9-4.4-2.9H6l13.2,25.6c1.3,2.5,4,2.5,5.4,2.5c1.9,0,4.1-0.1,5.3-2.5l13.2-25.6H38.3z"/>
	<path class="st0" d="M184.2,12c0-1.2-1-2.3-2.3-2.3h-3.1c-1.2,0-2.3,1-2.3,2.3v22.9c0,3.5,1.2,5.5,3.5,7c2.2,1.4,4.6,2,9.3,2h2.5
		c1.2,0,2.3-1,2.3-2.3v-2.5h-1.9c-1.4,0-4.3-0.1-6-1.2c-2.2-1.5-2-4.1-2-6V12z"/>
	<path class="st0" d="M135.2,39.3c-1.4,0-4.2-0.1-6-1.2c-2.2-1.5-2-4.1-2-6V21h7.4c1.2,0,2.3-1,2.3-2.3v-2.5h-9.7V12h0
		c0-1.2-1-2.3-2.3-2.3h-3.1c-1.2,0-2.3,1-2.3,2.3v4.2h-16V12c0-1.2-1-2.3-2.3-2.3h-3.1c-1.2,0-2.3,1-2.3,2.3v4.2h-4.8v2.5
		c0,1.2,1,2.3,2.3,2.3H96v14c0,3.5,1.2,5.5,3.5,7c2.2,1.4,4.6,2,9.3,2h2.5c1.2,0,2.3-1,2.3-2.3v-2.5h-1.9c-1.4,0-4.2-0.1-6-1.2
		c-2.2-1.5-2-4.1-2-6V21h16v14c0,3.5,1.2,5.5,3.5,7c2.2,1.4,4.6,2,9.3,2h2.5c1.2,0,2.3-1,2.3-2.3v-2.5H135.2z"/>
	<path class="st0" d="M88.4,41.7v-2.4H71.5c-2.8,0-6-0.3-7-3.3c-0.3-0.8-0.5-2.6-0.5-3.8h20.1c1.4,0,2.7-0.2,3.7-1
		c1.4-1.2,1.6-2.8,1.6-4.2c0-3.5-0.9-7-4.9-9c-3.2-1.6-7.4-1.8-11.4-1.8c-3.3,0-9.2,0-12.9,2.6c-3.8,2.6-4.1,6.4-4.1,11.6
		c0,3.7,0.2,7.5,2.5,10.1c2.9,3.2,7.1,3.5,10.6,3.5h17C87.4,44,88.4,43,88.4,41.7 M81.6,25.8c0,0.7-0.2,1.6-1.7,1.6H69
		c-2.8,0-5,1.3-5,2.8v-2.8c0.1-1.8,0-3.3,1.6-4.8c2.1-1.9,5.2-1.8,7.3-1.8c2.2,0,4.6,0.1,6.5,1.3C80.5,22.8,81.6,24.1,81.6,25.8"/>
	<path class="st0" d="M171.1,41.7v-2.4h-16.9c-2.8,0-6-0.3-7-3.3c-0.3-0.8-0.5-2.6-0.5-3.8h20.1c1.4,0,2.7-0.2,3.7-1
		c1.4-1.2,1.6-2.8,1.6-4.2c0-3.5-0.8-7-4.9-9c-3.2-1.6-7.4-1.8-11.4-1.8c-3.3,0-9.1,0-12.9,2.6c-3.8,2.6-4.1,6.4-4.1,11.6
		c0,3.7,0.2,7.5,2.5,10.1c2.9,3.2,7.1,3.5,10.6,3.5h17C170.1,44,171.1,43,171.1,41.7 M164.3,25.8c0,0.7-0.2,1.6-1.7,1.6h-10.9
		c-2.8,0-5,1.3-5,2.8v-2.8c0.1-1.8,0-3.3,1.6-4.8c2.1-1.9,5.2-1.8,7.3-1.8c2.2,0,4.6,0.1,6.5,1.3C163.2,22.8,164.3,24.1,164.3,25.8"
		/>
	<path class="st0" d="M49.5,8.5h-3.1c-1.2,0-2.3,1-2.3,2.3v0.6v4.9h0c0.2-1.3,1.7-2.6,3.8-2.6h1.6c1.2,0,2.3-1,2.3-2.3v-0.6
		C51.8,9.5,50.8,8.5,49.5,8.5"/>
</g>
</svg>
